<svg width="20" height="20" viewBox="0 0 20 20" fill="none" xmlns="http://www.w3.org/2000/svg">
<path d="M3 3.33333C3 1.49238 4.49238 0 6.33333 0H9.66667V6.66667H6.33333C4.49238 6.66667 3 5.17428 3 3.33333Z" fill="#FF4D12"/>
<path d="M3 9.99999C3 8.15904 4.49238 6.66666 6.33333 6.66666H9.66667V13.3333H6.33333C4.49238 13.3333 3 11.8409 3 9.99999Z" fill="#B659FF"/>
<path d="M3 16.6667C3 14.8257 4.49238 13.3333 6.33333 13.3333H9.66667V16.6667C9.66667 18.5076 8.17428 20 6.33333 20C4.49238 20 3 18.5076 3 16.6667Z" fill="#00CF7F"/>
<path d="M9.66663 0H13C14.8409 0 16.3333 1.49238 16.3333 3.33333C16.3333 5.17428 14.8409 6.66667 13 6.66667H9.66663V0Z" fill="#FF7361"/>
<rect x="9.66663" y="6.66666" width="6.66667" height="6.66667" rx="3.33333" fill="#00BCFF"/>
</svg>
