<svg width="43" height="40" viewBox="0 0 43 40" fill="none" xmlns="http://www.w3.org/2000/svg">
<path d="M13.6667 0L20.0933 3.71041V11.1312L13.6667 14.8416L7.24008 11.1312V3.71041L13.6667 0Z" fill="#112D4E"/>
<path d="M13.6667 25.1586L20.0933 28.869V36.2898L13.6667 40.0002L7.24008 36.2898V28.869L13.6667 25.1586Z" fill="#112D4E"/>
<path d="M28.5081 0L34.9347 3.71041V11.1312L28.5081 14.8416L22.0814 11.1312V3.71041L28.5081 0Z" fill="#112D4E"/>
<path d="M28.5081 25.1586L34.9347 28.869V36.2898L28.5081 40.0002L22.0814 36.2898V28.869L28.5081 25.1586Z" fill="#112D4E"/>
<path d="M35.7481 12.4887L42.1748 16.1991V23.62L35.7481 27.3304L29.3215 23.62V16.1991L35.7481 12.4887Z" fill="#112D4E"/>
<path d="M21.0868 12.4887L27.5135 16.1991V23.62L21.0868 27.3304L14.6602 23.62V16.1991L21.0868 12.4887Z" fill="#112D4E"/>
<path d="M6.42661 12.4887L12.8532 16.1991V23.62L6.42661 27.3304L0 23.62V16.1991L6.42661 12.4887Z" fill="#112D4E"/>
</svg>
