<svg width="24" height="25" viewBox="0 0 24 25" fill="none" xmlns="http://www.w3.org/2000/svg">
<path fill-rule="evenodd" clip-rule="evenodd" d="M5.74306 5.74556C8.07092 3.41815 11.8653 3.41815 14.1932 5.74556C16.2418 7.79373 16.4978 10.9822 14.9148 13.3097L19.6682 18.0624C20.1106 18.5046 20.1106 19.2261 19.6682 19.6683C19.2259 20.1106 18.5043 20.1106 18.062 19.6683L13.3318 14.9156C11.0039 16.4982 7.81478 16.2423 5.76626 14.1942C3.41503 11.8668 3.41522 8.09625 5.74306 5.74556ZM6.6045 6.60683C4.74216 8.46881 4.74216 11.4944 6.6045 13.3563C8.46683 15.2183 11.493 15.2183 13.3553 13.3563C15.2176 11.4944 15.2176 8.46876 13.3553 6.60683C11.493 4.74486 8.46679 4.74486 6.6045 6.60683Z" fill="#3F72AF"/>
</svg>
